<svg width="535px" height="66px" viewBox="0 0 535 66" version="1.1" xmlns="http://www.w3.org/2000/svg" xmlns:xlink="http://www.w3.org/1999/xlink">
    <defs></defs>
    <g id="Page-1" stroke="none" stroke-width="1" fill="none" fill-rule="evenodd">
        <g id="Stenograph.us" transform="translate(0.000000, -356.000000)">
            <g id="logo" transform="translate(-32.000000, 320.000000)">
                <g id="words" transform="translate(286.000000, 35.400000)" fill="#000000">
                    <path d="M41,12 L37,12 L36,8 C35,8 35,7 34,7 C33,7 32,6 31,6 C28,6 26,7 25,9 C24,11 23,13 23,16 L23,17 C23,20 24,23 25,25 C26.7900459,27.0084728 28.7119017,27.9360352 31.1943359,27.9360352 C32.3421281,27.9360352 33.393143,27.7692074 34.3474121,27.4355469 C35.3016812,27.1018864 36.0390599,26.6481148 36.5595703,26.0742188 L37.1601562,22.1904297 L41.5043945,22.1904297 L41.5043945,27.9560547 C40.3299095,29.3173896 38.8317962,30.4017701 37.0100098,31.2092285 C35.1882233,32.016687 33.1495881,32.4204102 30.894043,32.4204102 C26.9835416,32.4204102 23.7804487,31.0657688 21.284668,28.3564453 C18.7888873,25.6471219 17.5410156,22.1704314 17.5410156,17.9262695 L17.5410156,16.9453125 C17.5410156,12.7144971 18.7822142,9.23780658 21.2646484,6.51513672 C23.7470827,3.79246686 26.9568488,2.43115234 30.894043,2.43115234 C33.1495881,2.43115234 35.1848868,2.84154863 37,3.66235352 C38.8151132,4.4831584 40.3165631,5.56753883 41.5043945,6.91552734 L41.5043945,12.6811523 Z M66.7890625,10.3388672 L66.7890625,17.7260742 L62.3046875,17.7260742 L62.0644531,14.8032227 L58.3608398,14.8032227 L58.3608398,27.8959961 L61.4638672,28.496582 L61.4638672,32 L49.3920898,32 L49.3920898,28.496582 L52.4951172,27.8959961 L52.4951172,14.8032227 L48.871582,14.8032227 L48.6513672,17.7260742 L44.1669922,17.7260742 L44.1669922,10.3388672 L66.7890625,10.3388672 Z M78.300293,32.4204102 C75.1772305,32.4204102 72.6814872,31.4194436 70.8129883,29.4174805 C68.9444894,27.4155173 68.0102539,24.8730623 68.0102539,21.7900391 L68.0102539,20.9892578 C68.0102539,17.7727704 68.894441,15.1235456 70.6628418,13.0415039 C72.4312426,10.9594622 74.8035333,9.92513014 77.7797852,9.93847656 C80.7026513,9.93847656 82.9715089,10.8193271 84.5864258,12.5810547 C86.2013427,14.3427822 87.0087891,16.7250826 87.0087891,19.7280273 L87.0087891,22.9111328 L74.0761719,22.9111328 L74.0361328,23.03125 C74.1429042,24.459317 74.6200316,25.6337845 75.4675293,26.5546875 C76.315027,27.4755905 77.4661386,27.9360352 78.9208984,27.9360352 C80.2155013,27.9360352 81.289872,27.8059095 82.144043,27.5456543 C82.9982139,27.2853991 83.9324494,26.8750028 84.9467773,26.3144531 L86.5283203,29.9179688 C85.6341101,30.6253291 84.4763255,31.2192359 83.0549316,31.699707 C81.6335378,32.1801782 80.0486741,32.4204102 78.300293,32.4204102 L78.300293,32.4204102 Z M77.7797852,14.4428711 C76.6987251,14.4428711 75.8445669,14.8566039 75.2172852,15.684082 C74.5900034,16.5115601 74.202963,17.5992771 74.0561523,18.9472656 L74.1162109,19.0473633 L81.2832031,19.0473633 L81.2832031,18.5268555 C81.2832031,17.2856383 80.9929228,16.2946814 80.4123535,15.5539551 C79.8317842,14.8132287 78.9542702,14.4428711 77.7797852,14.4428711 L77.7797852,14.4428711 Z M90.4521484,12.8813477 L90.4521484,10.3388672 L100.922363,10.3388672 L100.922363,12.8813477 L97.6591797,13.4418945 L97.6591797,19.7080078 L107.288574,19.7080078 L107.288574,13.4418945 L104.025391,12.8813477 L104.025391,10.3388672 L107.288574,10.3388672 L111.252441,10.3388672 L114.515625,10.3388672 L114.515625,12.8813477 L111.252441,13.4418945 L111.252441,28.9169922 L114.515625,29.4775391 L114.515625,32 L104.025391,32 L104.025391,29.4775391 L107.288574,28.9169922 L107.288574,22.7910156 L97.6591797,22.7910156 L97.6591797,28.9169922 L100.922363,29.4775391 L100.922363,32 L90.4521484,32 L90.4521484,29.4775391 L93.715332,28.9169922 L93.715332,13.4418945 L90.4521484,12.8813477 Z M118.239258,20.9692383 C118.239258,17.7660973 119.106762,15.1268821 120.841797,13.0515137 C122.576832,10.9761452 124.93244,9.93847656 127.908691,9.93847656 C130.89829,9.93847656 133.263907,10.9728087 135.005615,13.0415039 C136.747323,15.1101991 137.618164,17.7527508 137.618164,20.9692383 L137.618164,21.409668 C137.618164,24.6395018 136.75066,27.2820535 135.015625,29.3374023 C133.28059,31.3927512 130.924982,32.4204102 127.94873,32.4204102 C124.945786,32.4204102 122.576832,31.3894146 120.841797,29.3273926 C119.106762,27.2653705 118.239258,24.6261554 118.239258,21.409668 L118.239258,20.9692383 Z M122.183105,21.409668 C122.183105,23.7052524 122.666906,25.6004157 123.634521,27.0952148 C124.602137,28.590014 126.040192,29.3374023 127.94873,29.3374023 C129.817229,29.3374023 131.238602,28.590014 132.212891,27.0952148 C133.187179,25.6004157 133.674316,23.7052524 133.674316,21.409668 L133.674316,20.9692383 C133.674316,18.7003467 133.187179,16.8118565 132.212891,15.3037109 C131.238602,13.7955654 129.803883,13.0415039 127.908691,13.0415039 C126.0135,13.0415039 124.585454,13.7955654 123.624512,15.3037109 C122.663569,16.8118565 122.183105,18.7003467 122.183105,20.9692383 L122.183105,21.409668 Z M144.144531,13.4418945 L140.881348,12.8813477 L140.881348,10.3388672 L157.917969,10.3388672 L157.917969,10.3789062 L158.558594,10.3789062 L158.558594,15.9243164 L155.996094,15.9243164 L155.71582,13.4619141 L148.088379,13.4619141 L148.088379,28.9169922 L151.351562,29.4775391 L151.351562,32 L140.881348,32 L140.881348,29.4775391 L144.144531,28.9169922 L144.144531,13.4418945 Z M162.262207,12.1206055 L162.262207,10.3388672 L167.527344,10.3388672 L167.827637,13.7021484 C168.56169,12.5009706 169.499262,11.5734082 170.640381,10.9194336 C171.7815,10.265459 173.119458,9.93847656 174.654297,9.93847656 C177.256849,9.93847656 179.292148,10.9761452 180.760254,13.0515137 C182.22836,15.1268821 182.962402,17.8928864 182.962402,21.3496094 L182.962402,21.7700195 C182.962402,25.0131998 182.22836,27.5990301 180.760254,29.5275879 C179.292148,31.4561457 177.270195,32.4204102 174.694336,32.4204102 C173.172844,32.4204102 171.841558,32.1301299 170.700439,31.5495605 C169.55932,30.9689912 168.628422,30.1448621 167.907715,29.0771484 L167.907715,38.2861328 L171.170898,38.5463867 L171.170898,40.328125 L162.262207,40.328125 L162.262207,38.5463867 L165.525391,38.2861328 L165.525391,12.3808594 L162.262207,12.1206055 Z M180.560059,21.3496094 C180.560059,18.6002467 180.012864,16.3580816 178.918457,14.6230469 C177.824051,12.8880122 176.222504,12.0205078 174.11377,12.0205078 C172.498853,12.0205078 171.187586,12.4042117 170.179932,13.1716309 C169.172277,13.9390501 168.414879,14.9366801 167.907715,16.1645508 L167.907715,26.574707 C168.454918,27.7625385 169.245682,28.6967739 170.280029,29.3774414 C171.314377,30.0581089 172.605624,30.3984375 174.153809,30.3984375 C176.249197,30.3984375 177.840733,29.6110105 178.928467,28.0361328 C180.0162,26.4612551 180.560059,24.3725716 180.560059,21.7700195 L180.560059,21.3496094 Z M201.820801,32 C201.660644,31.2659469 201.547201,30.6320014 201.480469,30.0981445 C201.413737,29.5642877 201.380371,29.0237658 201.380371,28.4765625 C200.579586,29.6110083 199.511888,30.5519168 198.177246,31.2993164 C196.842604,32.046716 195.341154,32.4204102 193.672852,32.4204102 C191.550771,32.4204102 189.909185,31.8732151 188.748047,30.7788086 C187.586908,29.6844021 187.006348,28.2029716 187.006348,26.3344727 C187.006348,24.3325095 187.867179,22.7443093 189.588867,21.5698242 C191.310555,20.3953392 193.646144,19.8081055 196.595703,19.8081055 L201.380371,19.8081055 L201.380371,16.9453125 C201.380371,15.3971277 200.883224,14.1826216 199.888916,13.3017578 C198.894608,12.420894 197.503264,11.9804688 195.714844,11.9804688 C194.513666,11.9804688 193.415939,12.14396 192.421631,12.4709473 C191.427323,12.7979346 190.59652,13.2416964 189.929199,13.8022461 L189.729004,16.7050781 L187.74707,16.7050781 L187.76709,12.5410156 C188.768071,11.7669232 189.965895,11.1396508 191.360596,10.6591797 C192.755297,10.1787085 194.240064,9.93847656 195.814941,9.93847656 C198.203951,9.93847656 200.125807,10.5457296 201.580566,11.7602539 C203.035326,12.9747782 203.762695,14.71646 203.762695,16.9853516 L203.762695,27.6357422 C203.762695,28.0761741 203.772705,28.4999166 203.792725,28.9069824 C203.812744,29.3140483 203.856119,29.7110983 203.922852,30.0981445 L206.084961,30.2382812 L206.084961,32 L201.820801,32 Z M193.933105,30.2983398 C195.66814,30.2983398 197.196282,29.8979532 198.517578,29.097168 C199.838874,28.2963827 200.793129,27.2620506 201.380371,25.9941406 L201.380371,21.6499023 L196.555664,21.6499023 C194.380197,21.6499023 192.641852,22.1003373 191.340576,23.0012207 C190.0393,23.9021041 189.388672,25.0398694 189.388672,26.4145508 C189.388672,27.5756894 189.792395,28.5132614 190.599854,29.2272949 C191.407312,29.9413284 192.518385,30.2983398 193.933105,30.2983398 L193.933105,30.2983398 Z M223.121582,10.9394531 C223.588707,10.619139 224.129229,10.3722339 224.743164,10.1987305 C225.357099,10.025227 226.04443,9.93847656 226.805176,9.93847656 C229.274264,9.93847656 231.196119,10.9728087 232.570801,13.0415039 C233.945482,15.1101991 234.632812,17.8795399 234.632812,21.3496094 L234.632812,21.7700195 C234.632812,25.0131998 233.948819,27.5990301 232.580811,29.5275879 C231.212802,31.4561457 229.300956,32.4204102 226.845215,32.4204102 C226.084469,32.4204102 225.393802,32.3403328 224.773193,32.1801758 C224.152585,32.0200187 223.602053,31.7864599 223.121582,31.4794922 L223.121582,38.2861328 L226.384766,38.5463867 L226.384766,40.328125 L217.456055,40.328125 L217.456055,38.5463867 L220.719238,38.2861328 L220.719238,31.5195312 C220.238767,31.8131525 219.698245,32.0367017 219.097656,32.1901855 C218.497067,32.3436694 217.843102,32.4204102 217.135742,32.4204102 C214.680001,32.4204102 212.771491,31.4561457 211.410156,29.5275879 C210.048821,27.5990301 209.368164,25.0131998 209.368164,21.7700195 L209.368164,21.3496094 C209.368164,17.8795399 210.048821,15.1101991 211.410156,13.0415039 C212.771491,10.9728087 214.693347,9.93847656 217.175781,9.93847656 C217.883142,9.93847656 218.530433,10.0218904 219.117676,10.1887207 C219.704918,10.355551 220.238767,10.5857733 220.719238,10.8793945 L220.719238,2.81152344 L217.456055,2.55126953 L217.456055,0.76953125 L223.121582,0.76953125 L223.121582,10.9394531 Z M232.230469,21.3496094 C232.230469,18.5869002 231.729985,16.3347255 230.729004,14.5930176 C229.728022,12.8513097 228.239919,11.9804688 226.264648,11.9804688 C225.543942,11.9804688 224.923342,12.0638826 224.402832,12.2307129 C223.882322,12.3975432 223.455243,12.6077461 223.121582,12.8613281 L223.121582,29.6176758 C223.495282,29.8579114 223.94238,30.048095 224.462891,30.1882324 C224.983401,30.3283698 225.597327,30.3984375 226.304688,30.3984375 C228.266611,30.3984375 229.744705,29.614347 230.739014,28.0461426 C231.733322,26.4779381 232.230469,24.385918 232.230469,21.7700195 L232.230469,21.3496094 Z M211.770508,21.7700195 C211.770508,24.3992644 212.250972,26.4946211 213.211914,28.0561523 C214.172856,29.6176836 215.634268,30.3984375 217.596191,30.3984375 C218.263512,30.3984375 218.857419,30.3250333 219.37793,30.1782227 C219.89844,30.031412 220.345538,29.8312187 220.719238,29.5776367 L220.719238,12.8012695 C220.358885,12.561034 219.928469,12.3641772 219.427979,12.2106934 C218.927488,12.0572095 218.330244,11.9804688 217.63623,11.9804688 C215.66096,11.9804688 214.189539,12.8479731 213.221924,14.5830078 C212.254308,16.3180425 211.770508,18.5735538 211.770508,21.3496094 L211.770508,21.7700195 Z M240.400391,32 L237.657715,32 L237.657715,28.7167969 L240.400391,28.7167969 L240.400391,32 Z M245.571289,11.4199219 L242.728516,11.4199219 L249.435059,28.0761719 L250.23584,30.2382812 L250.355957,30.2382812 L250.476074,29.9179688 L257.542969,11.4199219 L254.700195,11.4199219 L254.700195,10.3388672 L261.106445,10.3388672 L261.106445,11.4199219 L258.744141,11.4199219 L249.535156,35.6035156 C248.947914,37.1250076 248.26392,38.3628696 247.483154,39.3171387 C246.702389,40.2714078 245.457854,40.7485352 243.749512,40.7485352 C243.49593,40.7485352 243.215659,40.7251793 242.908691,40.6784668 C242.601724,40.6317543 242.374838,40.581706 242.228027,40.5283203 L242.408203,39.5073242 C242.555014,39.5473635 242.775226,39.5874021 243.068848,39.6274414 C243.362469,39.6674807 243.589355,39.6875 243.749512,39.6875 C244.977382,39.6875 245.934974,39.327152 246.622314,38.6064453 C247.309655,37.8857386 247.920245,36.8180409 248.454102,35.4033203 L249.755371,31.8798828 L241.547363,11.4199219 L239.185059,11.4199219 L239.185059,10.3388672 L245.571289,10.3388672 L245.571289,11.4199219 Z M272.477539,31.3393555 C274.305999,31.3393555 275.920891,30.8388722 277.322266,29.8378906 C278.72364,28.8369091 279.424316,27.3354592 279.424316,25.3334961 L280.345215,25.3334961 L280.385254,25.4536133 C280.43864,27.5756942 279.661222,29.2673277 278.052979,30.5285645 C276.444735,31.7898012 274.586274,32.4204102 272.477539,32.4204102 C269.71483,32.4204102 267.549406,31.4261167 265.981201,29.4375 C264.412997,27.4488833 263.628906,24.833024 263.628906,21.5898438 L263.628906,20.7490234 C263.628906,17.5191896 264.40966,14.9100034 265.971191,12.9213867 C267.532723,10.93277 269.688137,9.93847656 272.4375,9.93847656 C274.065763,9.93847656 275.573886,10.2754686 276.961914,10.9494629 C278.349942,11.6234571 279.464351,12.5343367 280.305176,13.6821289 L280.305176,18.3266602 L279.224121,18.3266602 L279.224121,14.0825195 C278.463375,13.1482701 277.505784,12.4042183 276.351318,11.8503418 C275.196853,11.2964653 273.89226,11.0195312 272.4375,11.0195312 C269.90168,11.0195312 267.979824,11.9270743 266.671875,13.7421875 C265.363926,15.5573007 264.709961,17.8928894 264.709961,20.7490234 L264.709961,21.5898438 C264.709961,24.4726707 265.363926,26.818269 266.671875,28.626709 C267.979824,30.435149 269.915026,31.3393555 272.477539,31.3393555 L272.477539,31.3393555 Z" id="name"></path>
                </g>
                <g id="waves" transform="translate(166.717096, 59.549489) rotate(-7.000000) translate(-166.717096, -59.549489) translate(4.217096, 19.549489)">
                    <path d="M1.99864967,19.8543086 C33.9284096,19.8543086 28.5147579,65.6061707 53.5862694,65.6061721 C78.657781,65.6061735 81.9426626,16.705663 99.2793198,16.7056632 C116.615977,16.7056634 124.160351,60.4271263 145.580055,60.4271255 C166.99976,60.4271247 172.790157,23.2598966 190.039528,23.2598968 C207.288899,23.259897 219.100463,52.5323806 234.51025,52.5323806 C249.920036,52.5323806 250.683132,26.8067258 267.69204,26.806726 C277.366797,26.8067261 284.329194,35.5034197 292.106224,43.0269618 C298.001762,48.7303382 304.569786,53.4461532 313.245567,53.4461532 C323.976433,52.5323806 323.171105,47.911325 323.171105,47.911325 L323.324272,43.6672187" id="red" stroke="#E80000" transform="translate(162.661461, 41.155918) rotate(5.000000) translate(-162.661461, -41.155918) "></path>
                    <path d="M307.802525,63.6379389 C298.045415,61.8170007 285.943852,44.9941832 278.665318,44.9941832 C271.386784,44.9941832 265.596333,59.0238291 256.128575,59.0238291 C246.660816,59.0238291 246.390126,30.3634008 234.081616,28.3117968 C221.773105,26.2601928 220.672222,59.0238291 203.376501,59.0238283 C186.08078,59.0238275 174.468627,20.4605506 155.555337,20.4605504 C136.642047,20.4605503 118.147667,52.5205829 87.5281225,46.7945714 C56.9085776,41.0685598 51.8282537,0.783027511 20.7314804,0.783027054" id="bold" stroke="#000000" stroke-width="3"></path>
                </g>
            </g>
        </g>
    </g>
</svg>