<?xml version="1.0" encoding="UTF-8" standalone="no"?>
<svg width="128px" height="128px" viewBox="0 0 128 128" version="1.1" xmlns="http://www.w3.org/2000/svg" xmlns:xlink="http://www.w3.org/1999/xlink">
    <defs></defs>
    <g id="Page-1" stroke="none" stroke-width="1" fill="none" fill-rule="evenodd">
        <g id="favicon">
            <g id="head" transform="translate(0.000000, 4.082645)">
                <path d="M63.7361679,115.779879 C98.9366814,115.779879 127.472336,100.432055 127.472336,65.0974347 C127.472336,29.7628142 89.8474913,32.911644 69.0755865,0.309728361 C49.4594402,35.2102347 0,29.7628142 0,65.0974347 C0,100.432055 28.5356544,115.779879 63.7361679,115.779879 Z" id="silhouette" fill="#000000"></path>
                <path d="M16.6790721,77.2821316 C19.3334761,77.2821316 28.7203765,76.6786468 39.8317932,77.2821312 C47.1174469,77.6778304 47.8331369,79.3708249 61.4529474,79.3708249 C75.0727579,79.3708249 78.0249917,77.7675772 87.813525,77.2821312 C98.990806,76.7278127 109.79187,77.2821316 112.480864,77.2821316 C117.524753,77.2821316 124.277932,77.6209071 124.277932,68.4768593 C124.277932,51.9720943 117.245351,44.387095 106.643732,43.9285444 C95.5882745,43.450364 80.607266,50.466204 63.4612803,50.466204 C48.9322557,50.466204 36.1709283,49.8022473 25.7109012,49.1961453 C11.989502,48.4010645 2.6446281,49.345163 2.6446281,68.4768593 C2.6446281,78.2865798 12.2841999,77.2821316 16.6790721,77.2821316 Z" id="eyes" fill="#FFFFFF"></path>
            </g>
        </g>
    </g>
</svg>