<?xml version="1.0" encoding="UTF-8" standalone="no"?>
<svg width="32px" height="32px" viewBox="0 0 32 32" version="1.1" xmlns="http://www.w3.org/2000/svg" xmlns:xlink="http://www.w3.org/1999/xlink">
    <defs></defs>
    <g id="Page-1" stroke="none" stroke-width="1" fill="none" fill-rule="evenodd">
        <g id="favicon">
            <g id="head" transform="translate(0.000000, 1.082645)">
                <path d="M15.934042,28.9449698 C24.7341704,28.9449698 31.8680839,25.1080138 31.8680839,16.2743587 C31.8680839,7.44070355 22.4618728,8.22791101 17.2688966,0.0774320903 C12.36486,8.80255868 0,7.44070355 0,16.2743587 C0,25.1080138 7.13391359,28.9449698 15.934042,28.9449698 Z" id="silhouette" fill="#000000"></path>
                <path d="M4.16976803,19.3205329 C4.83336902,19.3205329 7.18009413,19.1696617 9.95794829,19.3205328 C11.7793617,19.4194576 11.9582842,19.8427062 15.3632369,19.8427062 C18.7681895,19.8427062 19.5062479,19.4418943 21.9533812,19.3205328 C24.7477015,19.1819532 27.4479674,19.3205329 28.1202161,19.3205329 C29.3811883,19.3205329 31.0694831,19.4052268 31.0694831,17.1192148 C31.0694831,12.9930236 29.3113378,11.0967737 26.6609331,10.9821361 C23.8970686,10.862591 20.1518165,12.616551 15.8653201,12.616551 C12.2330639,12.616551 9.04273208,12.4505618 6.4277253,12.2990363 C2.99737549,12.1002661 0.661157025,12.3362908 0.661157025,17.1192148 C0.661157025,19.5716449 3.07104997,19.3205329 4.16976803,19.3205329 Z" id="eyes" fill="#FFFFFF"></path>
            </g>
        </g>
    </g>
</svg>