  <svg id="favicon" width="400" height="220" version="1.1"
     baseProfile="full"
     xmlns="http://www.w3.org/2000/svg">
    <g id="head" transform="translate(0.000000, 0.000000)">
        <path d="M120,218 C187,218 241,189 241,123 C241,56 169,62 130,0 C93,66 1,56 1,123 C1,189 53,218 120,218 Z" id="silhouette" fill="#000000"></path>
        <path d="M31,146 C36,146 54,144 75,146 C89,146 90,150 116,150 C141,150 147,147 166,146 C187,145 207,146 212,146 C222,146 234,146 234,129 C234,98 221,83 201,83 C180,82 152,95 119,95 C92,95 68,94 48,93 C22,91 5,93 5,129 C5,148 23,146 31,146 Z" id="eyes" fill="#FFFFFF"></path>
    </g>
</svg>