<?xml version="1.0" encoding="UTF-8" standalone="no"?>
<svg width="242px" height="219px" viewBox="0 0 242 219" version="1.1" xmlns="http://www.w3.org/2000/svg" xmlns:xlink="http://www.w3.org/1999/xlink">
    <defs></defs>
    <g id="Page-1" stroke="none" stroke-width="1" fill="none" fill-rule="evenodd">
        <g id="Transcribe.ninja" transform="translate(-449.000000, -377.000000)">
            <g id="Logo" transform="translate(449.623253, 309.728844)">
                <g id="head" transform="translate(0.000000, 67.000000)">
                    <path d="M120.501192,218.896334 C187.052163,218.896334 241.002385,189.879354 241.002385,123.074837 C241.002385,56.2703206 169.867913,62.223577 130.596031,0.585580183 C93.5092541,66.5693501 0,56.2703206 0,123.074837 C0,189.879354 53.9502215,218.896334 120.501192,218.896334 Z" id="silhouette" fill="#000000"></path>
                    <path d="M31.5338707,146.11153 C36.5523532,146.11153 54.2994619,144.970567 75.3069839,146.111529 C89.081423,146.859648 90.4345245,150.060466 116.184479,150.060466 C141.934433,150.060466 147.516,147.029326 166.022446,146.111529 C187.154493,145.063521 207.575253,146.11153 212.659134,146.11153 C222.195236,146.11153 234.962966,146.752028 234.962966,129.464062 C234.962966,98.2597408 221.666992,83.9193514 201.623306,83.0524042 C180.721581,82.1483444 152.398112,95.4126669 119.981483,95.4126669 C92.512546,95.4126669 68.3856613,94.1573737 48.6096725,93.0114622 C22.6676521,91.5082626 5,93.2931989 5,129.464062 C5,148.010565 23.2248154,146.11153 31.5338707,146.11153 Z" id="eyes" fill="#FFFFFF"></path>
                    <path d="M37.702395,105.262223 L37.702395,111.357536 L36.5790268,111.357536 L36.5790268,106.385591 L26.6767439,106.385591 L26.6767439,134.428191 L30.0676517,134.428191 L30.0676517,135.551559 L22.1624678,135.551559 L22.1624678,134.428191 L25.5533756,134.428191 L25.5533756,106.385591 L15.6510927,106.385591 L15.6510927,111.357536 L14.5277245,111.357536 L14.5277245,105.262223 L37.702395,105.262223 Z M44.0265421,113.042588 L44.2345732,116.953574 L44.2345732,117.723289 C44.8586698,116.114507 45.7878663,114.862865 47.0221907,113.968327 C48.256515,113.073788 49.7751272,112.626526 51.5780729,112.626526 C51.8970556,112.626526 52.1917635,112.650796 52.4622053,112.699337 C52.7326472,112.747878 52.9649463,112.799885 53.1591097,112.85536 L53.034291,113.85391 L51.5780729,113.729091 C49.567095,113.729091 47.9340668,114.377448 46.6789393,115.674182 C45.4238117,116.970916 44.6090312,118.680222 44.2345732,120.80215 L44.2345732,134.428191 L47.625481,134.428191 L47.625481,135.551559 L39.7202972,135.551559 L39.7202972,134.428191 L43.111205,134.428191 L43.111205,114.165956 L39.7202972,114.165956 L39.7202972,113.042588 L43.111205,113.042588 L44.0265421,113.042588 Z M72.1315509,135.551559 C71.9651251,134.788774 71.847242,134.130015 71.7778979,133.575263 C71.7085538,133.02051 71.6738823,132.458832 71.6738823,131.890211 C70.8417536,133.06906 69.7322652,134.046796 68.3453839,134.82345 C66.9585026,135.600103 65.3982845,135.988424 63.6646829,135.988424 C61.4595417,135.988424 59.7537033,135.419812 58.5471166,134.282569 C57.3405298,133.145326 56.7372455,131.605911 56.7372455,129.664277 C56.7372455,127.583955 57.6317705,125.933591 59.4208474,124.713136 C61.2099243,123.49268 63.6369301,122.882462 66.7019378,122.882462 L71.6738823,122.882462 L71.6738823,119.907616 C71.6738823,118.298834 71.1572768,117.036791 70.1240502,116.121449 C69.0908237,115.206108 67.6450216,114.748444 65.7866007,114.748444 C64.5384075,114.748444 63.3977148,114.918334 62.3644882,115.25812 C61.3312617,115.597906 60.467941,116.059037 59.7745004,116.641527 L59.5664692,119.657979 L57.5069608,119.657979 L57.5277639,115.330931 C58.5679249,114.52654 59.8126322,113.874715 61.2619231,113.375438 C62.7112141,112.876161 64.2540963,112.626526 65.8906163,112.626526 C68.3731338,112.626526 70.3702129,113.257547 71.8819135,114.519609 C73.3936141,115.781671 74.1494531,117.591524 74.1494531,119.949222 L74.1494531,131.01648 C74.1494531,131.474151 74.1598545,131.914479 74.1806577,132.337478 C74.2014609,132.760476 74.2465339,133.173067 74.315878,133.575263 L76.5626144,133.720885 L76.5626144,135.551559 L72.1315509,135.551559 Z M63.9351234,133.783294 C65.7380691,133.783294 67.3260244,133.367236 68.6990368,132.535107 C70.0720493,131.702978 71.0636546,130.628162 71.6738823,129.310624 L71.6738823,124.796348 L66.6603315,124.796348 C64.399715,124.796348 62.5933292,125.264414 61.24112,126.200559 C59.8889107,127.136703 59.2128162,128.319002 59.2128162,129.74749 C59.2128162,130.954076 59.6323415,131.928346 60.4714047,132.670327 C61.3104679,133.412309 62.4650293,133.783294 63.9351234,133.783294 L63.9351234,133.783294 Z M79.3294288,132.930366 L82.7203366,132.347879 L82.7203366,116.267071 L79.3294288,115.684584 L79.3294288,113.042588 L86.3816849,113.042588 L86.6729285,116.39189 C87.4218444,115.199172 88.3614424,114.273442 89.4917506,113.614674 C90.6220589,112.955905 91.908372,112.626526 93.3507285,112.626526 C95.7777708,112.626526 97.6569667,113.337292 98.9883728,114.758845 C100.319779,116.180398 100.985472,118.375105 100.985472,121.343031 L100.985472,132.347879 L104.37638,132.930366 L104.37638,135.551559 L93.4963503,135.551559 L93.4963503,132.930366 L96.8872581,132.347879 L96.8872581,121.426244 C96.8872581,119.443003 96.49547,118.03534 95.7118821,117.203211 C94.9282942,116.371082 93.732127,115.955024 92.1233447,115.955024 C90.9444956,115.955024 89.9008831,116.239331 88.9924758,116.807952 C88.0840686,117.376573 87.359434,118.153215 86.8185503,119.137901 L86.8185503,132.347879 L90.2094581,132.930366 L90.2094581,135.551559 L79.3294288,135.551559 L79.3294288,132.930366 Z M125.179495,120.781347 L121.102084,120.781347 L120.457188,117.972926 C120.041123,117.640075 119.517584,117.362703 118.886553,117.140802 C118.255522,116.918901 117.558624,116.807952 116.795839,116.807952 C115.727941,116.807952 114.881956,117.047185 114.257859,117.525659 C113.633763,118.004133 113.321719,118.603951 113.321719,119.325129 C113.321719,120.004701 113.619894,120.569846 114.216253,121.020583 C114.812612,121.471319 116.005312,121.870042 117.794389,122.216762 C120.58202,122.771514 122.648443,123.586295 123.993717,124.661128 C125.338992,125.735961 126.01162,127.216435 126.01162,129.102593 C126.01162,131.12744 125.141365,132.781271 123.400829,134.064136 C121.660293,135.347001 119.368506,135.988424 116.525399,135.988424 C114.791797,135.988424 113.200375,135.735322 111.751084,135.229111 C110.301793,134.722899 109.01548,133.998264 107.892106,133.055185 L107.829697,128.000028 L112.073532,128.000028 L112.905657,130.933267 C113.266246,131.238381 113.758582,131.463746 114.382678,131.609369 C115.006775,131.754991 115.658599,131.827801 116.338171,131.827801 C117.572495,131.827801 118.512093,131.605904 119.156993,131.162102 C119.801893,130.7183 120.124338,130.115015 120.124338,129.352231 C120.124338,128.686527 119.798426,128.11098 119.146592,127.625572 C118.494757,127.140163 117.295123,126.710237 115.547653,126.335779 C112.898709,125.794895 110.898163,124.993983 109.545954,123.933019 C108.193745,122.872055 107.51765,121.426253 107.51765,119.595569 C107.51765,117.709411 108.294292,116.083317 109.847599,114.717239 C111.400906,113.351161 113.612948,112.668132 116.483793,112.668132 C118.231263,112.668132 119.885094,112.903898 121.445336,113.375438 C123.005577,113.846978 124.229482,114.450262 125.117086,115.185309 L125.179495,120.781347 Z M139.30481,131.328526 C140.386578,131.328526 141.253365,131.013016 141.9052,130.381985 C142.557034,129.750954 142.882946,128.908436 142.882946,127.854406 L148.374969,127.854406 L148.437378,127.979225 C148.492853,130.25371 147.639934,132.157176 145.878595,133.68968 C144.117255,135.222184 141.926016,135.988424 139.30481,135.988424 C135.948558,135.988424 133.362063,134.927476 131.545248,132.805548 C129.728434,130.683619 128.82004,127.958438 128.82004,124.629923 L128.82004,124.00583 C128.82004,120.691184 129.752704,117.966003 131.618059,115.830206 C133.483414,113.694408 136.142719,112.626526 139.596054,112.626526 C141.412868,112.626526 143.042429,112.896964 144.484786,113.437847 C145.927143,113.978731 147.126777,114.741504 148.083725,115.72619 L148.166937,121.73829 L143.236599,121.73829 L142.23805,118.222564 C141.932936,117.959056 141.558483,117.740626 141.114681,117.567266 C140.670879,117.393906 140.164675,117.307227 139.596054,117.307227 C137.876321,117.307227 136.662818,117.931314 135.955509,119.179507 C135.248199,120.4277 134.89455,122.036458 134.89455,124.00583 L134.89455,124.629923 C134.89455,126.640901 135.220462,128.260061 135.872296,129.487451 C136.52413,130.714841 137.66829,131.328526 139.30481,131.328526 L139.30481,131.328526 Z M151.72427,115.684584 L151.72427,113.042588 L158.776526,113.042588 L159.171785,116.308677 C159.809751,115.157566 160.596794,114.256106 161.532939,113.604272 C162.469084,112.952438 163.540434,112.626526 164.74702,112.626526 C165.066003,112.626526 165.395382,112.650796 165.735168,112.699337 C166.074954,112.747878 166.334991,112.799885 166.515285,112.85536 L165.974404,116.66233 L163.644455,116.537511 C162.562688,116.537511 161.654294,116.790614 160.919247,117.296825 C160.1842,117.803037 159.615587,118.513803 159.213392,119.429144 L159.213392,132.347879 L162.604299,132.930366 L162.604299,135.551559 L151.72427,135.551559 L151.72427,132.930366 L155.115178,132.347879 L155.115178,116.267071 L151.72427,115.684584 Z M169.344509,133.720885 L172.735417,133.450444 L172.735417,115.164506 L169.344509,114.894065 L169.344509,113.042588 L175.210987,113.042588 L175.210987,133.450444 L178.601895,133.720885 L178.601895,135.551559 L169.344509,135.551559 L169.344509,133.720885 Z M175.210987,106.593622 L172.735417,106.593622 L172.735417,103.098699 L175.210987,103.098699 L175.210987,106.593622 Z M201.235685,124.713136 C201.235685,128.180339 200.48678,130.926323 198.988948,132.951169 C197.491116,134.976016 195.424694,135.988424 192.78962,135.988424 C191.000543,135.988424 189.450726,135.624373 188.140124,134.896261 C186.829521,134.168148 185.806711,133.186944 185.071664,131.95262 L184.926042,135.551559 L183.989902,135.551559 L183.989902,104.222067 L180.598994,104.222067 L180.598994,103.098699 L185.11327,103.098699 L185.11327,117.140802 C185.862186,115.740052 186.874594,114.637498 188.150525,113.833106 C189.426456,113.028715 190.958937,112.626526 192.748014,112.626526 C195.396957,112.626526 197.47378,113.677073 198.978547,115.778198 C200.483313,117.879323 201.235685,120.711985 201.235685,124.27627 L201.235685,124.713136 Z M200.07071,124.27627 C200.07071,121.155787 199.446623,118.6213 198.19843,116.672732 C196.950237,114.724164 195.140384,113.749894 192.768817,113.749894 C190.577544,113.749894 188.882107,114.308105 187.682455,115.424545 C186.482803,116.540984 185.626416,117.910509 185.11327,119.53316 L185.11327,129.851505 C185.654154,131.377075 186.572949,132.594045 187.869683,133.502452 C189.166417,134.410859 190.813314,134.865056 192.810423,134.865056 C195.18199,134.865056 196.984909,133.949728 198.219233,132.119045 C199.453557,130.288362 200.07071,127.81975 200.07071,124.713136 L200.07071,124.27627 Z M215.173772,135.988424 C212.608042,135.988424 210.392532,134.951746 208.527177,132.878359 C206.661821,130.804971 205.729158,128.228878 205.729158,125.150001 L205.729158,123.818602 C205.729158,120.587168 206.630617,117.913995 208.433563,115.799001 C210.236508,113.684007 212.462419,112.626526 215.111363,112.626526 C217.649355,112.626526 219.719245,113.458642 221.321092,115.1229 C222.92294,116.787157 223.723852,119.020003 223.723852,121.821503 L223.723852,123.548161 L206.852526,123.548161 L206.852526,123.818602 L206.852526,125.150001 C206.852526,127.868289 207.649971,130.16701 209.244884,132.046234 C210.839798,133.925458 212.816074,134.865056 215.173772,134.865056 C216.851898,134.865056 218.256094,134.636224 219.386403,134.178553 C220.516711,133.720882 221.484046,133.034387 222.288437,132.119045 L222.891728,132.992776 C222.004124,133.977461 220.92584,134.722899 219.656843,135.229111 C218.387847,135.735322 216.893505,135.988424 215.173772,135.988424 L215.173772,135.988424 Z M215.111363,113.749894 C212.878484,113.749894 211.020091,114.564675 209.536128,116.19426 C208.052165,117.823846 207.213114,119.859063 207.018951,122.299974 L207.08136,122.424793 L222.600484,122.424793 L222.600484,121.73829 C222.600484,119.449936 221.907054,117.54647 220.520173,116.027835 C219.133291,114.5092 217.330373,113.749894 215.111363,113.749894 L215.111363,113.749894 Z" id="Transcribe" fill="#000000"></path>
                    <path d="M89.7720174,191.108365 L92.0511522,191.108365 L92.0511522,177.489487 L89.7720174,177.489487 L89.7720174,176.734436 L92.6943436,176.734436 L92.7922205,179.852516 C93.2489819,178.771203 93.9154707,177.934597 94.7917068,177.342671 C95.667943,176.750746 96.7492395,176.454787 98.0356287,176.454787 C99.6855627,176.454787 100.922995,176.974462 101.747962,178.013827 C102.572929,179.053193 102.985406,180.700771 102.985406,182.956613 L102.985406,191.108365 L105.264541,191.108365 L105.264541,191.863416 L99.9512205,191.863416 L99.9512205,191.108365 L102.230355,191.108365 L102.230355,182.928649 C102.230355,180.831275 101.855164,179.353814 101.10477,178.496221 C100.354377,177.638628 99.3360004,177.209838 98.0496111,177.209838 C96.4183204,177.209838 95.1878796,177.696888 94.3582518,178.671001 C93.5286239,179.645115 93.0112795,180.891868 92.8062029,182.411299 L92.8062029,191.108365 L95.0853377,191.108365 L95.0853377,191.863416 L89.7720174,191.863416 L89.7720174,191.108365 Z M108.228814,191.108365 L110.507949,191.108365 L110.507949,177.489487 L108.228814,177.489487 L108.228814,176.734436 L111.263,176.734436 L111.263,191.108365 L113.542134,191.108365 L113.542134,191.863416 L108.228814,191.863416 L108.228814,191.108365 Z M111.263,171.980412 L110.507949,171.980412 L110.507949,170.050838 L111.263,170.050838 L111.263,171.980412 Z M116.744109,191.108365 L119.023244,191.108365 L119.023244,177.489487 L116.744109,177.489487 L116.744109,176.734436 L119.666435,176.734436 L119.764312,179.852516 C120.221074,178.771203 120.887562,177.934597 121.763798,177.342671 C122.640035,176.750746 123.721331,176.454787 125.00772,176.454787 C126.657654,176.454787 127.895086,176.974462 128.720053,178.013827 C129.54502,179.053193 129.957498,180.700771 129.957498,182.956613 L129.957498,191.108365 L132.236632,191.108365 L132.236632,191.863416 L126.923312,191.863416 L126.923312,191.108365 L129.202447,191.108365 L129.202447,182.928649 C129.202447,180.831275 128.827256,179.353814 128.076862,178.496221 C127.326468,177.638628 126.308092,177.209838 125.021703,177.209838 C123.390412,177.209838 122.159971,177.696888 121.330343,178.671001 C120.500716,179.645115 119.983371,180.891868 119.778295,182.411299 L119.778295,191.108365 L122.057429,191.108365 L122.057429,191.863416 L116.744109,191.863416 L116.744109,191.108365 Z M139.32572,193.107852 C139.32572,194.664569 138.976163,195.864715 138.277039,196.708325 C137.577914,197.551936 136.599154,197.973734 135.34073,197.973734 C135.06108,197.973734 134.800078,197.950431 134.557714,197.903822 C134.315351,197.857214 134.054349,197.787303 133.774699,197.694086 L133.95647,196.967 C134.12426,197.02293 134.336325,197.078859 134.59267,197.134789 C134.849016,197.190719 135.098367,197.218684 135.34073,197.218684 C136.366113,197.218684 137.160772,196.859805 137.724733,196.142037 C138.288693,195.424269 138.570669,194.412884 138.570669,193.107852 L138.570669,177.489487 L136.291535,177.489487 L136.291535,176.734436 L139.32572,176.734436 L139.32572,193.107852 Z M139.241826,171.924483 L138.486775,171.924483 L138.486775,170.050838 L139.241826,170.050838 L139.241826,171.924483 Z M154.091158,191.863416 C153.969976,191.201578 153.888413,190.705207 153.846465,190.374288 C153.804518,190.043369 153.783544,189.686821 153.783544,189.304633 L153.783544,189.080914 C153.205601,189.985115 152.396959,190.723846 151.357594,191.297128 C150.318229,191.87041 149.094779,192.157047 147.687208,192.157047 C146.288959,192.157047 145.186689,191.777195 144.380366,191.01748 C143.574042,190.257764 143.170886,189.262692 143.170886,188.032233 C143.170886,186.67127 143.790767,185.562009 145.030548,184.704416 C146.270329,183.846823 147.934221,183.418033 150.022273,183.418033 L153.783544,183.418033 L153.783544,181.208811 C153.783544,179.950386 153.380389,178.969296 152.574065,178.265511 C151.767741,177.561726 150.632846,177.209838 149.169345,177.209838 C148.209214,177.209838 147.312018,177.345 146.477729,177.615328 C145.64344,177.885657 144.932674,178.258517 144.34541,178.733922 L144.331427,181.152881 L143.576376,181.152881 L143.590359,178.272502 C144.308127,177.741167 145.154055,177.305386 146.128168,176.965146 C147.102282,176.624905 148.115997,176.454787 149.169345,176.454787 C150.791314,176.454787 152.091666,176.864934 153.070441,177.68524 C154.049215,178.505547 154.538595,179.68938 154.538595,181.236776 L154.538595,188.815248 C154.538595,189.206758 154.554908,189.593601 154.587534,189.975789 C154.620159,190.357977 154.673758,190.735499 154.748331,191.108365 L156.566046,191.108365 L156.566046,191.863416 L154.091158,191.863416 Z M147.687208,191.415979 C149.113423,191.415979 150.353185,191.094386 151.406533,190.451192 C152.45988,189.807997 153.25221,188.917792 153.783544,187.780549 L153.783544,184.187067 L150.06422,184.187067 C148.20921,184.187067 146.722427,184.548276 145.603828,185.270704 C144.485228,185.993133 143.925937,186.932276 143.925937,188.088162 C143.925937,189.02965 144.270833,189.819649 144.960636,190.458183 C145.650439,191.096717 146.559287,191.415979 147.687208,191.415979 L147.687208,191.415979 Z" id="ninja" fill="#FFFFFF"></path>
                </g>
            </g>
        </g>
    </g>
</svg>