<?xml version="1.0" encoding="UTF-8" standalone="no"?>
<svg width="349px" height="221px" viewBox="0 0 349 221" version="1.1" xmlns="http://www.w3.org/2000/svg" xmlns:xlink="http://www.w3.org/1999/xlink">
    <defs></defs>
    <g id="Page-1" stroke="none" stroke-width="1" fill="none" fill-rule="evenodd">
        <g id="Transcribe.ninja" transform="translate(-449.000000, -375.000000)">
            <g id="Logo" transform="translate(449.623253, 326.728844)">
                <g id="slogans" transform="translate(280.644655, 66.663535) rotate(11.000000) translate(-280.644655, -66.663535) translate(152.644655, 24.163535)" fill="#000000">
                    <g id="down" transform="translate(28.148624, 13.279444)">
                        <path d="M6.82242169,61.8280533 L1.0687219,66.5222537 L0.398424431,65.7006675 L6.15212422,61.006467 L6.82242169,61.8280533 Z M15.9485465,54.0651586 L15.1207704,54.5330852 L14.2069531,53.4308651 C13.9109046,53.3519918 13.5902653,53.3315522 13.2450256,53.3695455 C12.8997858,53.4075389 12.5346182,53.5353805 12.1495118,53.753074 C11.2482835,54.2625218 10.7400872,54.9806815 10.624908,55.9075744 C10.5097287,56.8344674 10.736035,57.8001258 11.3038337,58.8045786 L11.3812604,58.9415487 C11.949059,59.9460015 12.6558782,60.6426542 13.501739,61.0315277 C14.3475998,61.4204012 15.1913555,61.3769466 16.0330313,60.9011628 C16.4260781,60.6789807 16.7486024,60.4154633 17.0006139,60.1106027 C17.2526254,59.8057421 17.4154765,59.5146136 17.4891721,59.2372084 L17.0160414,57.8858763 L17.8438176,57.4179497 L18.7157096,58.9603526 C18.6473743,59.4233249 18.4343445,59.9222451 18.076614,60.457128 C17.7188834,60.9920109 17.2105017,61.4457195 16.5514536,61.8182672 C15.4239256,62.4556381 14.2632459,62.5616821 13.0693798,62.1364026 C11.8755137,61.711123 10.9217571,60.867239 10.2080813,59.6047253 L10.1373873,59.4796656 C9.41922299,58.2092115 9.18038794,56.9572664 9.420875,55.7237928 C9.66136205,54.4903192 10.3572697,53.5481783 11.5086187,52.8973419 C12.1676668,52.5247941 12.8196792,52.3251726 13.4646755,52.2984713 C14.1096718,52.27177 14.6469927,52.3465307 15.0766545,52.5227556 L15.9485465,54.0651586 Z M25.8159491,48.8006676 L26.4198057,50.9190344 L25.3145709,51.23409 L24.9027089,50.1635639 L22.7777634,50.7692959 L24.9287682,58.315155 L26.0536184,58.1936818 L26.2899101,59.0226079 L22.8492089,60.0034061 L22.6129172,59.17448 L23.6327488,58.6845952 L21.4817441,51.1387361 L19.3502198,51.7463434 L19.5712972,52.871254 L18.4594836,53.188185 L17.855627,51.0698183 L25.8159491,48.8006676 Z M29.4456126,59.0095613 L29.3442774,58.153592 L30.4290838,57.8322843 L29.5066118,50.0402462 L28.3767675,49.9811232 L28.274628,49.1183605 L35.8696572,48.2192117 L36.1511439,50.5969042 L35.0030581,50.732822 L34.7375353,49.4209756 L30.844913,49.8818095 L31.2237136,53.0815042 L35.0076414,52.6335383 L35.1322998,53.6865164 L31.348372,54.1344823 L31.767385,57.6738475 L35.7415282,57.2033626 L35.6933944,55.8657803 L36.8346868,55.7306667 L37.1153693,58.1015658 L29.4456126,59.0095613 Z M38.0286653,49.3155905 L37.9966263,48.4473938 L41.5719559,48.3154534 L41.6039949,49.1836501 L40.496759,49.4161845 L40.6236539,52.8547902 L45.450007,52.6766833 L45.3231121,49.2380776 L44.2017487,49.0877851 L44.1697097,48.2195885 L45.2840093,48.1784675 L46.6307396,48.1287691 L47.7450393,48.087648 L47.7770783,48.9558447 L46.6698424,49.1883792 L46.9592031,57.029494 L48.0805665,57.1797864 L48.1123533,58.0411469 L44.5370237,58.1730873 L44.5052369,57.3117268 L45.6124729,57.0791924 L45.4891098,53.7362934 L40.6627567,53.9144003 L40.7861197,57.2572993 L41.9074831,57.4075917 L41.9392699,58.2689522 L38.3639403,58.4008926 L38.3321535,57.5395322 L39.4393895,57.3069977 L39.1500287,49.4658829 L38.0286653,49.3155905 Z M58.0268838,53.4823669 C58.0136274,54.9325732 57.5864921,56.1326961 56.7454653,57.0827717 C55.9044385,58.0328472 54.8226838,58.5018333 53.5001685,58.4897441 C52.2141365,58.4779883 51.1741983,57.9896076 50.3803226,57.0245873 C49.586447,56.0595669 49.1961433,54.8519717 49.2093997,53.4017653 L49.2107129,53.2581135 C49.2239277,51.8124676 49.6362418,50.6122092 50.4476677,49.6573023 C51.2590936,48.7023953 52.3078069,48.2308268 53.5938389,48.2425826 C54.9163541,48.2546718 55.9893339,48.745635 56.8128104,49.7154867 C57.636287,50.6853384 58.0414118,51.8930691 58.028197,53.3387151 L58.0268838,53.4823669 Z M56.6807314,53.3127155 C56.6913199,52.1543746 56.4229194,51.2067139 55.8755219,50.4697052 C55.3281244,49.7326965 54.5641944,49.3597163 53.583709,49.3507536 C52.6442672,49.3421661 51.9078385,49.7025714 51.374401,50.4319806 C50.8409635,51.1613897 50.5689754,52.1029704 50.5584286,53.2567509 L50.5569904,53.4140838 C50.5463185,54.5815455 50.8009963,55.5336414 51.3210314,56.2704 C51.8410665,57.0071586 52.5707941,57.3798261 53.5102359,57.3884137 C54.5044025,57.3975014 55.278433,57.0397201 55.8323506,56.315059 C56.3862682,55.5903979 56.6685796,54.6420705 56.6792932,53.4700484 L56.6807314,53.3127155 Z M59.0676577,57.6598657 L60.1879489,57.5017795 L60.4227793,49.6588422 L59.3139532,49.4340125 L59.3399545,48.5656141 L66.5606535,48.7818136 L66.494729,50.9835798 L65.3391437,50.9489797 L65.2707676,49.8039989 L61.7698226,49.6991749 L61.5349922,57.5421122 L62.6438183,57.7669418 L62.6180218,58.6285025 L59.0418611,58.5214264 L59.0676577,57.6598657 Z M72.2750391,49.0474823 C73.3368161,49.0897261 74.1518787,49.3960018 74.7202515,49.9663185 C75.2886243,50.5366353 75.5550389,51.268367 75.5195033,52.1615356 C75.4836052,53.0638181 75.1598088,53.7743498 74.5481044,54.2931519 C73.9364,54.811954 73.0996718,55.0502295 72.0378949,55.0079857 L69.925744,54.9239518 L69.8088036,57.8631909 L70.9153656,58.0989118 L70.8810993,58.9601772 L67.3061644,58.817945 L67.3404306,57.9566796 L68.462222,57.8096159 L68.7741537,49.9693665 L67.6675918,49.7336457 L67.70213,48.8655448 L68.8163066,48.9098734 L72.2750391,49.0474823 Z M69.967625,53.8712941 L72.0797759,53.955328 C72.7542093,53.982161 73.2660943,53.8211027 73.6154461,53.4721485 C73.964798,53.1231942 74.15044,52.6730263 74.1723778,52.1216315 C74.1943156,51.5702366 74.0451604,51.1033254 73.7249078,50.720884 C73.4046552,50.3384426 72.9073196,50.1338084 72.2328862,50.1069755 L70.1207353,50.0229416 L69.967625,53.8712941 Z M74.3747227,58.2588504 L75.1174069,58.1896257 L79.0011243,49.3599098 L80.1560537,49.4119928 L83.1677436,58.5526658 L83.8943483,58.68815 L83.8555172,59.5492216 L80.9989461,59.4204009 L81.0377772,58.5593293 L81.795362,58.4633853 L81.2219005,56.6023139 L77.2377356,56.422643 L76.4785861,58.2236186 L77.2244599,58.3873629 L77.1856287,59.2484346 L74.3358916,59.1199221 L74.3747227,58.2588504 Z M77.7054539,55.3138483 L80.8627167,55.4562291 L79.5108694,51.1153908 L79.469866,51.1135417 L77.7054539,55.3138483 Z M88.884428,58.6312323 C87.7320186,58.5740197 86.7905659,58.1768293 86.0600416,57.4396492 C85.3295173,56.7024692 84.9916227,55.7827406 85.0463478,54.6804359 C85.1006207,53.5872412 85.5290331,52.7066983 86.3315981,52.0387808 C87.1341631,51.3708633 88.1093581,51.0654023 89.2572126,51.1223888 L89.4553531,51.1322257 L89.4916479,50.4011554 L88.3877982,50.1477247 L88.4305379,49.2868382 L92.0039002,49.4642416 L91.9611605,50.3251281 L90.8376371,50.4679785 L90.8013423,51.1990488 L90.9789856,51.207868 C92.12684,51.2648545 93.0693749,51.6632401 93.8066186,52.4030369 C94.5438623,53.1428337 94.8853426,54.0593157 94.8310698,55.1525104 C94.7763447,56.254815 94.3454852,57.138661 93.5384783,57.8040749 C92.7314714,58.4694888 91.7540555,58.773698 90.606201,58.7167115 L90.4285578,58.7078923 L90.3953158,59.3774707 L91.4991655,59.6309014 L91.4564258,60.4917879 L87.8830636,60.3143845 L87.9258032,59.453498 L89.0493266,59.3106476 L89.0825685,58.6410692 L88.884428,58.6312323 Z M89.204636,52.1814158 C88.3437452,52.138676 87.667769,52.3494047 87.1766871,52.8136083 C86.6856053,53.277812 86.419603,53.9221296 86.3786722,54.7465806 C86.3372892,55.5801416 86.538052,56.2499153 86.9809668,56.755922 C87.4238815,57.2619287 88.0757745,57.5362978 88.9366653,57.5790377 L89.1348059,57.5888746 L89.4027766,52.1912527 L89.204636,52.1814158 Z M90.7487658,52.2580758 L90.4807951,57.6556976 L90.6721032,57.6651953 C91.5193291,57.7072568 92.1907504,57.4963019 92.6863872,57.0323244 C93.1820241,56.5683469 93.45053,55.9195875 93.491913,55.0860265 C93.5326176,54.2661305 93.3292947,53.6019373 92.881938,53.093427 C92.4345814,52.5849167 91.7872998,52.309635 90.9400739,52.2675735 L90.7487658,52.2580758 Z M99.7618973,50.4153246 L99.7167271,51.2829372 L98.5932183,51.4162475 L98.2948102,57.1479558 L98.3350884,57.1637531 L103.383603,52.295858 L103.416324,51.6673513 L102.312733,51.4180922 L102.357903,50.5504796 L103.471453,50.608454 L104.817278,50.6785212 L105.930828,50.7364956 L105.885658,51.6041082 L104.762149,51.7374185 L104.354194,59.5732582 L105.457785,59.8225173 L105.412971,60.6832983 L101.840046,60.4972823 L101.884861,59.6365013 L103.00837,59.503191 L103.297175,53.9559357 L103.256896,53.9401385 L98.2080264,58.8148651 L98.1852635,59.2520872 L99.2888547,59.5013462 L99.2440401,60.3621272 L95.6711158,60.1761112 L95.7159304,59.3153302 L96.8394392,59.18202 L97.247394,51.3461802 L96.1438028,51.0969212 L96.188973,50.2293086 L97.302523,50.287283 L98.6483473,50.3573502 L99.7618973,50.4153246 Z M111.315719,50.9226346 C112.377655,50.9606779 113.193923,51.2637269 113.764547,51.8317909 C114.335171,52.3998548 114.604478,53.1305269 114.572476,54.0238291 C114.540148,54.9262466 114.219164,55.6380535 113.609517,56.1592713 C112.99987,56.6804891 112.164091,56.9220727 111.102155,56.8840294 L108.989688,56.8083514 L108.884376,59.7480301 L109.991862,59.9793718 L109.961003,60.840766 L106.385533,60.7126766 L106.416392,59.8512824 L107.537593,59.6997823 L107.818508,51.8583603 L106.711022,51.6270186 L106.742126,50.7587879 L107.856469,50.7987087 L111.315719,50.9226346 Z M109.027405,55.7555362 L111.139872,55.8312143 C111.814406,55.8553791 112.32565,55.6922972 112.673619,55.3419637 C113.021587,54.9916302 113.205447,54.5407315 113.225203,53.9892542 C113.24496,53.4377768 113.093959,52.9714593 112.772196,52.5902878 C112.450433,52.2091162 111.952292,52.006451 111.277757,51.9822862 L109.165291,51.9066081 L109.027405,55.7555362 Z M123.995492,55.5096209 C124.042083,56.9591392 123.66483,58.1758641 122.86372,59.1598319 C122.06261,60.1437998 121.001127,60.6570205 119.679239,60.6995095 C118.393817,60.7408264 117.334614,60.2957701 116.501597,59.3643275 C115.66858,58.4328848 115.228782,57.2424221 115.182191,55.7929038 L115.177576,55.6493202 C115.131131,54.2043601 115.49357,52.9881114 116.264905,52.0005376 C117.03624,51.0129639 118.064603,50.4985263 119.350025,50.4572094 C120.671912,50.4147204 121.764236,50.8609935 122.627028,51.7960421 C123.48982,52.7310907 123.944432,53.9210771 123.990877,55.3660372 L123.995492,55.5096209 Z M122.643486,55.3956572 C122.606271,54.2378658 122.298998,53.3020866 121.721657,52.5882915 C121.144316,51.8744964 120.365648,51.5333542 119.385627,51.5648547 C118.446631,51.5950365 117.7257,51.9855206 117.222813,52.7363185 C116.719926,53.4871165 116.487019,54.4391178 116.524087,55.5923509 L116.529142,55.7496092 C116.56665,56.9165171 116.860395,57.857294 117.410386,58.5719681 C117.960378,59.2866423 118.70486,59.6288834 119.643856,59.5987015 C120.637551,59.5667615 121.39616,59.1773478 121.919706,58.4304488 C122.443252,57.6835497 122.686194,56.7243816 122.64854,55.5529155 L122.643486,55.3956572 Z M128.403533,49.5901613 C129.437214,49.4773959 130.26969,49.6125183 130.900986,49.9955326 C131.532282,50.3785469 131.896641,51.016613 131.994074,51.9097499 C132.042049,52.3495179 131.945544,52.7580179 131.704558,53.1352622 C131.463572,53.5125064 131.123283,53.8099739 130.68368,54.0276736 C131.291441,54.0898262 131.792571,54.3310561 132.187085,54.7513703 C132.581599,55.1716846 132.811989,55.6855912 132.878263,56.2931057 C132.977181,57.1998438 132.758042,57.9245021 132.220841,58.4671025 C131.68364,59.0097029 130.911811,59.3358971 129.905332,59.445695 L125.144981,59.9650068 L125.051505,59.1081436 L126.139214,58.7968041 L125.288285,50.9966291 L124.159031,50.9271405 L124.064813,50.0634768 L125.173294,49.9425514 L128.403533,49.5901613 Z M127.086462,55.0531897 L127.478913,58.6506549 L129.791083,58.3984178 C130.403132,58.3316488 130.861584,58.1290989 131.166454,57.7907619 C131.471324,57.4524249 131.593587,57.006708 131.533248,56.4535978 C131.469941,55.8732854 131.27856,55.4331119 130.9591,55.1330641 C130.63964,54.8330163 130.187493,54.7148949 129.602647,54.7786964 L127.086462,55.0531897 Z M126.972213,54.0059125 L129.209578,53.761836 C129.688665,53.6958089 130.061844,53.5105898 130.329126,53.2061731 C130.596408,52.9017563 130.703834,52.5092683 130.651408,52.0286971 C130.593047,51.4937216 130.381656,51.1119289 130.01723,50.8833073 C129.652804,50.6546857 129.15324,50.5749971 128.518523,50.644239 L126.627984,50.8504799 L126.972213,54.0059125 Z M133.987299,57.778131 L134.695807,57.5449196 L136.511212,48.0711955 L137.64864,47.864239 L142.624155,56.1023474 L143.362671,56.072271 L143.51697,56.9202947 L140.703685,57.4321751 L140.549386,56.5841515 L141.266457,56.3215695 L140.292153,54.6353977 L136.368361,55.3493363 L136.030248,57.274304 L136.793853,57.2674752 L136.948152,58.1154988 L134.141598,58.6261547 L133.987299,57.778131 Z M136.576854,54.1641288 L139.686274,53.5983662 L137.399844,49.668658 L137.359462,49.6760056 L136.576854,54.1641288 Z M141.927251,47.5481923 L141.705183,46.7082652 L145.164095,45.7937632 L145.386164,46.6336903 L144.357107,47.103888 L145.236638,50.4305286 L149.905839,49.1960383 L149.026308,45.8693977 L147.899332,45.9692338 L147.677263,45.1293067 L148.75528,44.8442898 L150.058159,44.4998215 L151.136176,44.2148047 L151.358244,45.0547318 L150.329187,45.5249295 L152.334797,53.1107281 L153.461774,53.010892 L153.682093,53.8442056 L150.223181,54.7587076 L150.002861,53.925394 L151.031918,53.4551964 L150.176867,50.2211462 L145.507666,51.4556365 L146.362717,54.6896867 L147.489693,54.5898506 L147.710013,55.4231641 L144.251101,56.3376661 L144.030781,55.5043526 L145.059837,55.0341549 L143.054228,47.4483562 L141.927251,47.5481923 Z M154.620064,42.5389729 L154.908652,43.3584297 L153.920533,43.9094888 L155.827027,49.3230652 L155.870286,49.322336 L158.684994,42.8988385 L158.475939,42.3052163 L157.360569,42.4949402 L157.071982,41.6754834 L158.123726,41.3050919 L159.394852,40.8574408 L160.446595,40.4870493 L160.735183,41.306506 L159.747064,41.8575652 L162.353439,49.2584855 L163.468808,49.0687616 L163.755123,49.8817659 L160.38051,51.0702001 L160.094195,50.2571958 L161.082313,49.7061366 L159.237173,44.4667754 L159.193914,44.4675046 L156.381478,50.8974546 L156.526908,51.3104091 L157.642277,51.1206852 L157.928592,51.9336896 L154.553979,53.1221237 L154.267664,52.3091194 L155.255782,51.7580603 L152.649408,44.3571399 L151.534038,44.5468638 L151.245451,43.7274071 L152.297195,43.3570156 L153.568321,42.9093644 L154.620064,42.5389729 Z M164.509486,49.132918 L164.161352,48.3444039 L165.10405,47.7188138 L161.934919,40.5408323 L160.837494,40.8159717 L160.486596,40.0211996 L167.483094,36.9321946 L168.450135,39.1225115 L167.392525,39.5894541 L166.753616,38.4133423 L163.167755,39.9965264 L164.469115,42.9440672 L167.954848,41.4050907 L168.383109,42.3750882 L164.897376,43.9140647 L166.336886,47.1745079 L169.997844,45.5581681 L169.559193,44.2936411 L170.610545,43.8294614 L171.574823,46.0135203 L164.509486,49.132918 Z" id="OKQEASKDLNCUDIHF--Copy"></path>
                    </g>
                    <g id="up" transform="translate(118.768306, 40.467498) rotate(-12.000000) translate(-118.768306, -40.467498) translate(1.768306, 24.467498)">
                        <path d="M9.10778133,16.7152841 L3.18983178,21.7540012 L2.47033984,20.9089614 L8.3882894,15.8702442 L9.10778133,16.7152841 Z M22.2377429,5.11272919 L22.6083677,5.94313311 L21.6242862,6.60189801 L24.9715821,14.1016877 L26.2793048,13.5180267 L27.6397864,16.9176243 L26.4824518,17.4341643 L25.4406169,15.0998792 L18.5750728,18.1640995 L19.6227443,20.5114618 L18.5242572,21.001737 L16.8375469,17.7320592 L17.6548736,17.367271 C17.8149569,16.8358089 17.871063,16.1416666 17.8231934,15.2848233 C17.7753238,14.4279799 17.4833393,13.363848 16.9472309,12.0923956 L15.834695,9.17805936 L14.7489543,9.45093578 L14.3783295,8.62053186 L21.1719489,5.58841292 L22.2377429,5.11272919 Z M18.248415,11.5116528 C18.6722232,12.566628 18.9490381,13.5382107 19.078868,14.4264302 C19.208698,15.3146497 19.2091724,16.0828588 19.0802914,16.7310805 L23.6834753,14.6765938 L20.3361794,7.1768041 L17.1322588,8.60677358 L18.248415,11.5116528 Z M28.0056129,15.0327975 L27.7673237,14.1626364 L28.8400551,13.6610043 L26.670867,5.73977597 L25.4922292,5.85466984 L25.2520489,4.97760272 L32.973002,2.86325891 L33.6349164,5.28037304 L32.4677956,5.59998315 L31.9885181,4.28356422 L28.0313569,5.3672127 L28.9221046,8.61995772 L32.7687691,7.56656818 L33.0619026,8.63700444 L29.2152382,9.69039397 L30.2005451,13.288441 L34.2405787,12.1820983 L33.9822944,10.8051615 L35.1425092,10.4874426 L35.8025325,12.8976507 L28.0056129,15.0327975 Z M35.494083,3.67664584 L35.3362764,2.78108432 L39.0242975,2.13121957 L39.1821041,3.0267811 L38.0674746,3.42676684 L38.6924879,6.97375463 L43.6709638,6.09649935 L43.0459505,2.54951156 L41.861737,2.55460403 L41.7039304,1.6590425 L42.8533519,1.45650339 L44.24253,1.21171686 L45.3919515,1.00917775 L45.5497581,1.90473928 L44.4351286,2.30472503 L45.8603578,10.3929855 L47.0445713,10.387893 L47.2011352,11.2764028 L43.5131141,11.9262676 L43.3565502,11.0377577 L44.4711797,10.637772 L43.8635623,7.18950751 L38.8850864,8.0667628 L39.4927037,11.5150273 L40.6769172,11.5099348 L40.8334812,12.3984447 L37.1454601,13.0483094 L36.9888961,12.1597995 L38.1035256,11.7598138 L36.6782964,3.67155337 L35.494083,3.67664584 Z M49.9570893,1.02638442 L50.3334696,5.2772963 L52.894002,5.05058403 C54.0066624,4.9520679 54.8926934,5.14916718 55.5521217,5.64188776 C56.2115499,6.13460835 56.5825174,6.84694392 56.6650351,7.77891584 C56.7479739,8.71564272 56.5076969,9.49288089 55.9441968,10.1106537 C55.3806967,10.7284265 54.5450065,11.0863551 53.4371011,11.1844502 L48.3089037,11.6385062 L48.2293334,10.7398235 L49.3742327,10.43718 L48.6498901,2.25631437 L47.4696262,2.15954331 L47.3894244,1.2537282 L48.552006,1.15079199 L49.9570893,1.02638442 Z M50.4313537,6.38281869 L50.779316,10.3127725 L53.3398485,10.0860602 C54.0435824,10.0237508 54.5521573,9.78703454 54.8655886,9.37590417 C55.1790198,8.96477381 55.3100519,8.46916357 55.2586888,7.8890586 C55.2090098,7.32797347 54.9947243,6.88330471 54.6158262,6.55503899 C54.236928,6.22677327 53.6956201,6.09379707 52.9918862,6.15610642 L50.4313537,6.38281869 Z M51.1196709,0.923448208 L51.1998727,1.82926332 L50.0549734,2.1319068 L49.9570893,1.02638442 L51.1196709,0.923448208 Z M58.04786,10.2040303 L59.2087016,9.96986338 L58.971123,1.76043031 L57.798682,1.59378793 L57.7723764,0.68480973 L65.3304944,0.466079929 L65.3971904,2.77073333 L64.1876052,2.80573838 L64.0456548,1.61357479 L60.3811128,1.7196256 L60.6186915,9.92905867 L61.7911324,10.095701 L61.8172309,10.9975219 L58.0739584,11.1058512 L58.04786,10.2040303 Z M70.6850587,0.71476953 L70.670529,1.62401221 L69.5003448,1.80582676 L69.4043571,7.81255594 L69.4470846,7.82756117 L74.5443495,2.54526233 L74.554875,1.88659834 L73.3910976,1.667487 L73.4056274,0.758244319 L74.5726081,0.776892715 L75.9830082,0.799430961 L77.1499889,0.818079357 L77.1354592,1.72732203 L75.965275,1.90913659 L75.8340498,10.1209582 L76.9978272,10.3400696 L76.9834119,11.2421529 L73.2390503,11.1823178 L73.2534656,10.2802346 L74.4236498,10.09842 L74.5165485,4.28499438 L74.473821,4.26998916 L69.3764417,9.55944738 L69.3691196,10.0176484 L70.532897,10.2367598 L70.5184816,11.1388431 L66.7741201,11.079008 L66.7885354,10.1769247 L67.9587196,9.99511017 L68.0899448,1.78328852 L66.9261674,1.56417717 L66.9406971,0.654934491 L68.1076779,0.673582887 L69.518078,0.696121133 L70.6850587,0.71476953 Z M89.5519707,4.85603837 C89.5132427,5.33661003 89.3280872,5.76227355 88.9964987,6.13304171 C88.6649102,6.50380987 88.2282224,6.78229552 87.6864221,6.968507 C88.2650843,7.21627937 88.6959371,7.55988885 88.9789933,7.99934574 C89.2620495,8.43880264 89.3796106,8.95590678 89.3316799,9.55067369 C89.2549908,10.5023007 88.8416003,11.2196568 88.0914962,11.7027635 C87.341392,12.1858702 86.3953779,12.3814072 85.2534255,12.2893803 C84.2589752,12.2092401 83.4242272,11.8857604 82.7491566,11.3189314 C82.0740859,10.7521024 81.7877533,9.98194918 81.8901503,9.00844868 L81.9078757,8.96677601 L83.2496631,9.07490711 C83.2059503,9.61733452 83.378399,10.0921695 83.7670145,10.4994263 C84.1556299,10.9066832 84.6806201,11.1369576 85.3420009,11.1902565 C86.0985444,11.2512243 86.706396,11.1218206 87.165574,10.8020413 C87.6247519,10.4822621 87.8773438,10.036891 87.9233573,9.46591477 C87.9743555,8.83308278 87.8171396,8.34750295 87.4517047,8.00916069 C87.0862699,7.67081843 86.5229101,7.47097466 85.7616084,7.40962338 L84.591113,7.31529626 L84.6808388,6.20189817 L85.8513342,6.2962253 C86.5840871,6.35527591 87.139064,6.24316145 87.5162817,5.95987856 C87.8934994,5.67659567 88.1041532,5.26136767 88.1482494,4.71418212 C88.1915788,4.17651283 88.0283019,3.72157283 87.658414,3.34934846 C87.288526,2.97712409 86.6991494,2.75842232 85.8902664,2.69323658 C85.4239692,2.65565892 85.0160653,2.69581873 84.6665426,2.81371723 C84.3170199,2.93161572 84.0263856,3.09137216 83.7946311,3.29299133 L83.4055098,4.73425432 L82.4205807,4.6548815 L82.5689734,2.81349236 C82.8946534,2.45661516 83.369615,2.14888838 83.9938722,1.8903028 C84.6181295,1.63171721 85.3251728,1.53425185 86.1150232,1.59790381 C87.2522175,1.68954728 88.1284068,2.01876113 88.7436174,2.58555522 C89.3588279,3.1523493 89.6282763,3.90916945 89.5519707,4.85603837 L89.5519707,4.85603837 Z M90.3173325,11.7994264 L91.0978212,11.7797774 L95.7794283,2.83422288 L96.9818247,2.97047525 L99.4790217,12.7295129 L100.228209,12.9225007 L100.126624,13.8189619 L97.1526498,13.481959 L97.2542344,12.5854978 L98.0521776,12.5390021 L97.5852284,10.5548457 L93.4373168,10.0848153 L92.5168856,11.9117575 L93.2841921,12.1356231 L93.1826075,13.0320843 L90.2157479,12.6958876 L90.3173325,11.7994264 Z M94.0043453,8.9600579 L97.2913696,9.33253481 L96.1873232,4.70359551 L96.1446346,4.69875815 L94.0043453,8.9600579 Z M113.225453,7.80840583 L112.029642,7.62304185 L112.106676,6.42493091 L108.554624,5.87432313 L108.070923,8.99475071 L110.611135,9.38851205 C111.714965,9.55961812 112.527905,9.96338647 113.049977,10.5998292 C113.57205,11.236272 113.761424,12.0167696 113.618104,12.9413453 C113.474053,13.8706383 113.054448,14.567606 112.359276,15.0322692 C111.664105,15.4969325 110.766976,15.6440745 109.667863,15.4736996 L104.509605,14.6741118 L104.647805,13.7825611 L105.831872,13.7632217 L107.089934,5.64727968 L105.96729,5.27037429 L106.106587,4.37174776 L113.578631,5.52999839 L113.225453,7.80840583 Z M107.900915,10.0914996 L107.296562,13.9902652 L109.836774,14.3840265 C110.534923,14.4922474 111.085417,14.3843602 111.488272,14.0603616 C111.891128,13.736363 112.137156,13.2866198 112.226365,12.7111185 C112.312649,12.1544862 112.211218,11.6714125 111.922068,11.2618829 C111.632918,10.8523533 111.139276,10.5934819 110.441127,10.485261 L107.900915,10.0914996 Z M124.255732,8.18200409 L123.430478,8.17320085 L119.041728,15.2515875 C118.664803,15.8245572 118.28822,16.2368339 117.911969,16.4884299 C117.535718,16.7400258 116.989369,16.8084897 116.272906,16.6938235 C116.155066,16.674964 116.018328,16.6458283 115.862686,16.6064158 C115.707045,16.5670033 115.609146,16.5368323 115.568987,16.5159022 L115.780012,15.4692129 C115.825639,15.4861838 115.925848,15.5094731 116.080642,15.5390813 C116.235435,15.5686895 116.352896,15.5899055 116.433027,15.60273 C116.76769,15.6562912 117.020291,15.6109109 117.190835,15.4665876 C117.36138,15.3222644 117.569116,15.0739172 117.814051,14.7215385 L118.183714,14.1788326 L116.260035,7.03286078 L115.446104,6.77206982 L115.589813,5.87413829 L118.820953,6.39126507 L118.677244,7.28919659 L117.793164,7.28548146 L118.750317,11.318183 L119.053716,12.730009 L119.096138,12.7367984 L121.84333,7.9409405 L120.96803,7.65582477 L121.111739,6.75789324 L124.399441,7.28407257 L124.255732,8.18200409 Z M123.816348,16.8148144 L125.000397,16.7944358 L126.251335,8.67739267 L125.12836,8.30147279 L125.266869,7.40272433 L128.968014,7.97311718 L128.829506,8.87186563 L127.645456,8.89224428 L127.099057,12.4377008 L128.224262,12.6111089 L131.069468,9.61553802 C131.533049,9.14603096 131.921092,8.83755779 132.233611,8.69010923 C132.546129,8.54266068 132.888739,8.49765681 133.26145,8.55509628 C133.48319,8.58926912 133.666541,8.6452975 133.811511,8.72318309 C133.95648,8.80106867 134.105886,8.90499388 134.259733,9.03496181 L133.902911,9.98700348 C133.779164,9.94378295 133.670207,9.9064644 133.576035,9.8750467 C133.481864,9.843629 133.387601,9.82064968 133.293244,9.80610804 C133.071504,9.7719352 132.874883,9.80200654 132.703376,9.89632296 C132.531868,9.99063938 132.322871,10.1636986 132.076378,10.4155059 L129.385843,13.1596098 L132.158806,17.9193708 L133.101056,18.2457043 L132.963638,19.137376 L129.580947,18.616061 L129.718365,17.7243893 L130.519154,17.7463731 L128.248446,13.8174789 L126.918015,13.6124428 L126.394518,17.0092874 L127.517493,17.3852073 L127.380075,18.276879 L123.67893,17.7064861 L123.816348,16.8148144 Z M139.830988,9.41498131 C140.910402,9.55433064 141.724173,9.89643151 142.272326,10.4412942 C142.820479,10.9861568 143.03435,11.724903 142.913948,12.6575547 C142.854663,13.1167792 142.656067,13.5086776 142.318154,13.8332619 C141.980241,14.1578461 141.560903,14.3768543 141.060128,14.4902931 C141.663204,14.7029175 142.113774,15.0715298 142.411849,15.5961411 C142.709924,16.1207525 142.818011,16.7002457 142.736113,17.3346383 C142.613877,18.2814928 142.212797,18.964916 141.532862,19.3849282 C140.852927,19.8049404 139.987468,19.9471032 138.93646,19.811421 L133.965498,19.1696838 L134.081011,18.2749108 L135.264204,18.2255054 L136.315736,10.0802297 L135.183882,9.7319582 L135.300311,8.83008374 L136.457835,8.97951681 L139.830988,9.41498131 Z M137.148145,14.6494819 L136.663175,18.4061085 L139.077642,18.7178094 C139.716769,18.8003189 140.232998,18.706927 140.626345,18.4376308 C141.019691,18.1683347 141.253643,17.7449024 141.328208,17.1673211 C141.406439,16.5613342 141.319918,16.0664477 141.068642,15.682647 C140.817366,15.2988463 140.386374,15.0675282 139.775653,14.9886858 L137.148145,14.6494819 Z M137.289327,13.5558703 L139.625679,13.8574868 C140.129345,13.9080692 140.554555,13.8113498 140.901321,13.5673258 C141.248086,13.3233018 141.453859,12.950379 141.518644,12.448546 C141.590763,11.8899019 141.469534,11.4494952 141.154952,11.1273128 C140.84037,10.8051304 140.351687,10.6012596 139.688889,10.5156942 L137.714707,10.2608329 L137.289327,13.5558703 Z M147.109623,10.024945 L146.75075,14.2773706 L149.312194,14.4935374 C150.425251,14.5874711 151.2643,14.9337319 151.829365,15.5323301 C152.394431,16.1309283 152.637621,16.8963678 152.558941,17.8286716 C152.47986,18.7657321 152.109737,19.4901911 151.44856,20.0020704 C150.787383,20.5139498 149.902657,20.7231202 148.794358,20.6295879 L143.664334,20.1966522 L143.740203,19.2976494 L144.920058,19.1960192 L145.610708,11.0122403 L144.464573,10.7143137 L144.541044,9.80817603 L145.704039,9.90632419 L147.109623,10.024945 Z M152.601802,20.0455023 L153.781657,19.943872 L154.472307,11.7600931 L153.326171,11.4621665 L153.402642,10.5560289 L157.134217,10.8709459 L157.057746,11.7770836 L155.877891,11.8787139 L155.187241,20.0624928 L156.333376,20.3604193 L156.257507,21.2594221 L152.525932,20.944505 L152.601802,20.0455023 Z M146.657419,15.3832867 L146.325642,19.31464 L148.887086,19.5308068 C149.591071,19.5902178 150.13273,19.4443115 150.51208,19.0930834 C150.891429,18.7418554 151.105588,18.2760925 151.154562,17.695781 C151.20193,17.134496 151.067152,16.659645 150.750224,16.2712137 C150.433296,15.8827824 149.922848,15.6588645 149.218863,15.5994535 L146.657419,15.3832867 Z M148.272619,10.1230931 L148.196147,11.0292308 L147.016292,11.130861 L147.109623,10.024945 L148.272619,10.1230931 Z" id="OKQEASKDLNCUDIHF-"></path>
                    </g>
                </g>
                <g id="head" transform="translate(0.000000, 50.000000)">
                    <path d="M120.501192,218.896334 C187.052163,218.896334 241.002385,189.879354 241.002385,123.074837 C241.002385,56.2703206 169.867913,62.223577 130.596031,0.585580183 C93.5092541,66.5693501 1.13686838e-13,56.2703206 1.13686838e-13,123.074837 C1.13686838e-13,189.879354 53.9502215,218.896334 120.501192,218.896334 Z" id="silhouette" fill="#000000"></path>
                    <path d="M31.5338707,146.11153 C36.5523532,146.11153 54.2994619,144.970567 75.3069839,146.111529 C89.081423,146.859648 90.4345245,150.060466 116.184479,150.060466 C141.934433,150.060466 147.516,147.029326 166.022446,146.111529 C187.154493,145.063521 207.575253,146.11153 212.659134,146.11153 C222.195236,146.11153 234.962966,146.752028 234.962966,129.464062 C234.962966,98.2597408 221.666992,83.9193514 201.623306,83.0524042 C180.721581,82.1483444 152.398112,95.4126669 119.981483,95.4126669 C92.512546,95.4126669 68.3856613,94.1573737 48.6096725,93.0114622 C22.6676521,91.5082626 5,93.2931989 5,129.464062 C5,148.010565 23.2248154,146.11153 31.5338707,146.11153 Z" id="eyes" fill="#FFFFFF"></path>
                </g>
                <path d="M37.702395,155.262223 L37.702395,161.357536 L36.5790268,161.357536 L36.5790268,156.385591 L26.6767439,156.385591 L26.6767439,184.428191 L30.0676517,184.428191 L30.0676517,185.551559 L22.1624678,185.551559 L22.1624678,184.428191 L25.5533756,184.428191 L25.5533756,156.385591 L15.6510927,156.385591 L15.6510927,161.357536 L14.5277245,161.357536 L14.5277245,155.262223 L37.702395,155.262223 Z M44.0265421,163.042588 L44.2345732,166.953574 L44.2345732,167.723289 C44.8586698,166.114507 45.7878663,164.862865 47.0221907,163.968327 C48.256515,163.073788 49.7751272,162.626526 51.5780729,162.626526 C51.8970556,162.626526 52.1917635,162.650796 52.4622053,162.699337 C52.7326472,162.747878 52.9649463,162.799885 53.1591097,162.85536 L53.034291,163.85391 L51.5780729,163.729091 C49.567095,163.729091 47.9340668,164.377448 46.6789393,165.674182 C45.4238117,166.970916 44.6090312,168.680222 44.2345732,170.80215 L44.2345732,184.428191 L47.625481,184.428191 L47.625481,185.551559 L39.7202972,185.551559 L39.7202972,184.428191 L43.111205,184.428191 L43.111205,164.165956 L39.7202972,164.165956 L39.7202972,163.042588 L43.111205,163.042588 L44.0265421,163.042588 Z M72.1315509,185.551559 C71.9651251,184.788774 71.847242,184.130015 71.7778979,183.575263 C71.7085538,183.02051 71.6738823,182.458832 71.6738823,181.890211 C70.8417536,183.06906 69.7322652,184.046796 68.3453839,184.82345 C66.9585026,185.600103 65.3982845,185.988424 63.6646829,185.988424 C61.4595417,185.988424 59.7537033,185.419812 58.5471166,184.282569 C57.3405298,183.145326 56.7372455,181.605911 56.7372455,179.664277 C56.7372455,177.583955 57.6317705,175.933591 59.4208474,174.713136 C61.2099243,173.49268 63.6369301,172.882462 66.7019378,172.882462 L71.6738823,172.882462 L71.6738823,169.907616 C71.6738823,168.298834 71.1572768,167.036791 70.1240502,166.121449 C69.0908237,165.206108 67.6450216,164.748444 65.7866007,164.748444 C64.5384075,164.748444 63.3977148,164.918334 62.3644882,165.25812 C61.3312617,165.597906 60.467941,166.059037 59.7745004,166.641527 L59.5664692,169.657979 L57.5069608,169.657979 L57.5277639,165.330931 C58.5679249,164.52654 59.8126322,163.874715 61.2619231,163.375438 C62.7112141,162.876161 64.2540963,162.626526 65.8906163,162.626526 C68.3731338,162.626526 70.3702129,163.257547 71.8819135,164.519609 C73.3936141,165.781671 74.1494531,167.591524 74.1494531,169.949222 L74.1494531,181.01648 C74.1494531,181.474151 74.1598545,181.914479 74.1806577,182.337478 C74.2014609,182.760476 74.2465339,183.173067 74.315878,183.575263 L76.5626144,183.720885 L76.5626144,185.551559 L72.1315509,185.551559 Z M63.9351234,183.783294 C65.7380691,183.783294 67.3260244,183.367236 68.6990368,182.535107 C70.0720493,181.702978 71.0636546,180.628162 71.6738823,179.310624 L71.6738823,174.796348 L66.6603315,174.796348 C64.399715,174.796348 62.5933292,175.264414 61.24112,176.200559 C59.8889107,177.136703 59.2128162,178.319002 59.2128162,179.74749 C59.2128162,180.954076 59.6323415,181.928346 60.4714047,182.670327 C61.3104679,183.412309 62.4650293,183.783294 63.9351234,183.783294 L63.9351234,183.783294 Z M79.3294288,182.930366 L82.7203366,182.347879 L82.7203366,166.267071 L79.3294288,165.684584 L79.3294288,163.042588 L86.3816849,163.042588 L86.6729285,166.39189 C87.4218444,165.199172 88.3614424,164.273442 89.4917506,163.614674 C90.6220589,162.955905 91.908372,162.626526 93.3507285,162.626526 C95.7777708,162.626526 97.6569667,163.337292 98.9883728,164.758845 C100.319779,166.180398 100.985472,168.375105 100.985472,171.343031 L100.985472,182.347879 L104.37638,182.930366 L104.37638,185.551559 L93.4963503,185.551559 L93.4963503,182.930366 L96.8872581,182.347879 L96.8872581,171.426244 C96.8872581,169.443003 96.49547,168.03534 95.7118821,167.203211 C94.9282942,166.371082 93.732127,165.955024 92.1233447,165.955024 C90.9444956,165.955024 89.9008831,166.239331 88.9924758,166.807952 C88.0840686,167.376573 87.359434,168.153215 86.8185503,169.137901 L86.8185503,182.347879 L90.2094581,182.930366 L90.2094581,185.551559 L79.3294288,185.551559 L79.3294288,182.930366 Z M125.179495,170.781347 L121.102084,170.781347 L120.457188,167.972926 C120.041123,167.640075 119.517584,167.362703 118.886553,167.140802 C118.255522,166.918901 117.558624,166.807952 116.795839,166.807952 C115.727941,166.807952 114.881956,167.047185 114.257859,167.525659 C113.633763,168.004133 113.321719,168.603951 113.321719,169.325129 C113.321719,170.004701 113.619894,170.569846 114.216253,171.020583 C114.812612,171.471319 116.005312,171.870042 117.794389,172.216762 C120.58202,172.771514 122.648443,173.586295 123.993717,174.661128 C125.338992,175.735961 126.01162,177.216435 126.01162,179.102593 C126.01162,181.12744 125.141365,182.781271 123.400829,184.064136 C121.660293,185.347001 119.368506,185.988424 116.525399,185.988424 C114.791797,185.988424 113.200375,185.735322 111.751084,185.229111 C110.301793,184.722899 109.01548,183.998264 107.892106,183.055185 L107.829697,178.000028 L112.073532,178.000028 L112.905657,180.933267 C113.266246,181.238381 113.758582,181.463746 114.382678,181.609369 C115.006775,181.754991 115.658599,181.827801 116.338171,181.827801 C117.572495,181.827801 118.512093,181.605904 119.156993,181.162102 C119.801893,180.7183 120.124338,180.115015 120.124338,179.352231 C120.124338,178.686527 119.798426,178.11098 119.146592,177.625572 C118.494757,177.140163 117.295123,176.710237 115.547653,176.335779 C112.898709,175.794895 110.898163,174.993983 109.545954,173.933019 C108.193745,172.872055 107.51765,171.426253 107.51765,169.595569 C107.51765,167.709411 108.294292,166.083317 109.847599,164.717239 C111.400906,163.351161 113.612948,162.668132 116.483793,162.668132 C118.231263,162.668132 119.885094,162.903898 121.445336,163.375438 C123.005577,163.846978 124.229482,164.450262 125.117086,165.185309 L125.179495,170.781347 Z M139.30481,181.328526 C140.386578,181.328526 141.253365,181.013016 141.9052,180.381985 C142.557034,179.750954 142.882946,178.908436 142.882946,177.854406 L148.374969,177.854406 L148.437378,177.979225 C148.492853,180.25371 147.639934,182.157176 145.878595,183.68968 C144.117255,185.222184 141.926016,185.988424 139.30481,185.988424 C135.948558,185.988424 133.362063,184.927476 131.545248,182.805548 C129.728434,180.683619 128.82004,177.958438 128.82004,174.629923 L128.82004,174.00583 C128.82004,170.691184 129.752704,167.966003 131.618059,165.830206 C133.483414,163.694408 136.142719,162.626526 139.596054,162.626526 C141.412868,162.626526 143.042429,162.896964 144.484786,163.437847 C145.927143,163.978731 147.126777,164.741504 148.083725,165.72619 L148.166937,171.73829 L143.236599,171.73829 L142.23805,168.222564 C141.932936,167.959056 141.558483,167.740626 141.114681,167.567266 C140.670879,167.393906 140.164675,167.307227 139.596054,167.307227 C137.876321,167.307227 136.662818,167.931314 135.955509,169.179507 C135.248199,170.4277 134.89455,172.036458 134.89455,174.00583 L134.89455,174.629923 C134.89455,176.640901 135.220462,178.260061 135.872296,179.487451 C136.52413,180.714841 137.66829,181.328526 139.30481,181.328526 L139.30481,181.328526 Z M151.72427,165.684584 L151.72427,163.042588 L158.776526,163.042588 L159.171785,166.308677 C159.809751,165.157566 160.596794,164.256106 161.532939,163.604272 C162.469084,162.952438 163.540434,162.626526 164.74702,162.626526 C165.066003,162.626526 165.395382,162.650796 165.735168,162.699337 C166.074954,162.747878 166.334991,162.799885 166.515285,162.85536 L165.974404,166.66233 L163.644455,166.537511 C162.562688,166.537511 161.654294,166.790614 160.919247,167.296825 C160.1842,167.803037 159.615587,168.513803 159.213392,169.429144 L159.213392,182.347879 L162.604299,182.930366 L162.604299,185.551559 L151.72427,185.551559 L151.72427,182.930366 L155.115178,182.347879 L155.115178,166.267071 L151.72427,165.684584 Z M169.344509,183.720885 L172.735417,183.450444 L172.735417,165.164506 L169.344509,164.894065 L169.344509,163.042588 L175.210987,163.042588 L175.210987,183.450444 L178.601895,183.720885 L178.601895,185.551559 L169.344509,185.551559 L169.344509,183.720885 Z M175.210987,156.593622 L172.735417,156.593622 L172.735417,153.098699 L175.210987,153.098699 L175.210987,156.593622 Z M201.235685,174.713136 C201.235685,178.180339 200.48678,180.926323 198.988948,182.951169 C197.491116,184.976016 195.424694,185.988424 192.78962,185.988424 C191.000543,185.988424 189.450726,185.624373 188.140124,184.896261 C186.829521,184.168148 185.806711,183.186944 185.071664,181.95262 L184.926042,185.551559 L183.989902,185.551559 L183.989902,154.222067 L180.598994,154.222067 L180.598994,153.098699 L185.11327,153.098699 L185.11327,167.140802 C185.862186,165.740052 186.874594,164.637498 188.150525,163.833106 C189.426456,163.028715 190.958937,162.626526 192.748014,162.626526 C195.396957,162.626526 197.47378,163.677073 198.978547,165.778198 C200.483313,167.879323 201.235685,170.711985 201.235685,174.27627 L201.235685,174.713136 Z M200.07071,174.27627 C200.07071,171.155787 199.446623,168.6213 198.19843,166.672732 C196.950237,164.724164 195.140384,163.749894 192.768817,163.749894 C190.577544,163.749894 188.882107,164.308105 187.682455,165.424545 C186.482803,166.540984 185.626416,167.910509 185.11327,169.53316 L185.11327,179.851505 C185.654154,181.377075 186.572949,182.594045 187.869683,183.502452 C189.166417,184.410859 190.813314,184.865056 192.810423,184.865056 C195.18199,184.865056 196.984909,183.949728 198.219233,182.119045 C199.453557,180.288362 200.07071,177.81975 200.07071,174.713136 L200.07071,174.27627 Z M215.173772,185.988424 C212.608042,185.988424 210.392532,184.951746 208.527177,182.878359 C206.661821,180.804971 205.729158,178.228878 205.729158,175.150001 L205.729158,173.818602 C205.729158,170.587168 206.630617,167.913995 208.433563,165.799001 C210.236508,163.684007 212.462419,162.626526 215.111363,162.626526 C217.649355,162.626526 219.719245,163.458642 221.321092,165.1229 C222.92294,166.787157 223.723852,169.020003 223.723852,171.821503 L223.723852,173.548161 L206.852526,173.548161 L206.852526,173.818602 L206.852526,175.150001 C206.852526,177.868289 207.649971,180.16701 209.244884,182.046234 C210.839798,183.925458 212.816074,184.865056 215.173772,184.865056 C216.851898,184.865056 218.256094,184.636224 219.386403,184.178553 C220.516711,183.720882 221.484046,183.034387 222.288437,182.119045 L222.891728,182.992776 C222.004124,183.977461 220.92584,184.722899 219.656843,185.229111 C218.387847,185.735322 216.893505,185.988424 215.173772,185.988424 L215.173772,185.988424 Z M215.111363,163.749894 C212.878484,163.749894 211.020091,164.564675 209.536128,166.19426 C208.052165,167.823846 207.213114,169.859063 207.018951,172.299974 L207.08136,172.424793 L222.600484,172.424793 L222.600484,171.73829 C222.600484,169.449936 221.907054,167.54647 220.520173,166.027835 C219.133291,164.5092 217.330373,163.749894 215.111363,163.749894 L215.111363,163.749894 Z" id="Transcribe" fill="#000000"></path>
                <path d="M89.7720174,241.108365 L92.0511522,241.108365 L92.0511522,227.489487 L89.7720174,227.489487 L89.7720174,226.734436 L92.6943436,226.734436 L92.7922205,229.852516 C93.2489819,228.771203 93.9154707,227.934597 94.7917068,227.342671 C95.667943,226.750746 96.7492395,226.454787 98.0356287,226.454787 C99.6855627,226.454787 100.922995,226.974462 101.747962,228.013827 C102.572929,229.053193 102.985406,230.700771 102.985406,232.956613 L102.985406,241.108365 L105.264541,241.108365 L105.264541,241.863416 L99.9512205,241.863416 L99.9512205,241.108365 L102.230355,241.108365 L102.230355,232.928649 C102.230355,230.831275 101.855164,229.353814 101.10477,228.496221 C100.354377,227.638628 99.3360004,227.209838 98.0496111,227.209838 C96.4183204,227.209838 95.1878796,227.696888 94.3582518,228.671001 C93.5286239,229.645115 93.0112795,230.891868 92.8062029,232.411299 L92.8062029,241.108365 L95.0853377,241.108365 L95.0853377,241.863416 L89.7720174,241.863416 L89.7720174,241.108365 Z M108.228814,241.108365 L110.507949,241.108365 L110.507949,227.489487 L108.228814,227.489487 L108.228814,226.734436 L111.263,226.734436 L111.263,241.108365 L113.542134,241.108365 L113.542134,241.863416 L108.228814,241.863416 L108.228814,241.108365 Z M111.263,221.980412 L110.507949,221.980412 L110.507949,220.050838 L111.263,220.050838 L111.263,221.980412 Z M116.744109,241.108365 L119.023244,241.108365 L119.023244,227.489487 L116.744109,227.489487 L116.744109,226.734436 L119.666435,226.734436 L119.764312,229.852516 C120.221074,228.771203 120.887562,227.934597 121.763798,227.342671 C122.640035,226.750746 123.721331,226.454787 125.00772,226.454787 C126.657654,226.454787 127.895086,226.974462 128.720053,228.013827 C129.54502,229.053193 129.957498,230.700771 129.957498,232.956613 L129.957498,241.108365 L132.236632,241.108365 L132.236632,241.863416 L126.923312,241.863416 L126.923312,241.108365 L129.202447,241.108365 L129.202447,232.928649 C129.202447,230.831275 128.827256,229.353814 128.076862,228.496221 C127.326468,227.638628 126.308092,227.209838 125.021703,227.209838 C123.390412,227.209838 122.159971,227.696888 121.330343,228.671001 C120.500716,229.645115 119.983371,230.891868 119.778295,232.411299 L119.778295,241.108365 L122.057429,241.108365 L122.057429,241.863416 L116.744109,241.863416 L116.744109,241.108365 Z M139.32572,243.107852 C139.32572,244.664569 138.976163,245.864715 138.277039,246.708325 C137.577914,247.551936 136.599154,247.973734 135.34073,247.973734 C135.06108,247.973734 134.800078,247.950431 134.557714,247.903822 C134.315351,247.857214 134.054349,247.787303 133.774699,247.694086 L133.95647,246.967 C134.12426,247.02293 134.336325,247.078859 134.59267,247.134789 C134.849016,247.190719 135.098367,247.218684 135.34073,247.218684 C136.366113,247.218684 137.160772,246.859805 137.724733,246.142037 C138.288693,245.424269 138.570669,244.412884 138.570669,243.107852 L138.570669,227.489487 L136.291535,227.489487 L136.291535,226.734436 L139.32572,226.734436 L139.32572,243.107852 Z M139.241826,221.924483 L138.486775,221.924483 L138.486775,220.050838 L139.241826,220.050838 L139.241826,221.924483 Z M154.091158,241.863416 C153.969976,241.201578 153.888413,240.705207 153.846465,240.374288 C153.804518,240.043369 153.783544,239.686821 153.783544,239.304633 L153.783544,239.080914 C153.205601,239.985115 152.396959,240.723846 151.357594,241.297128 C150.318229,241.87041 149.094779,242.157047 147.687208,242.157047 C146.288959,242.157047 145.186689,241.777195 144.380366,241.01748 C143.574042,240.257764 143.170886,239.262692 143.170886,238.032233 C143.170886,236.67127 143.790767,235.562009 145.030548,234.704416 C146.270329,233.846823 147.934221,233.418033 150.022273,233.418033 L153.783544,233.418033 L153.783544,231.208811 C153.783544,229.950386 153.380389,228.969296 152.574065,228.265511 C151.767741,227.561726 150.632846,227.209838 149.169345,227.209838 C148.209214,227.209838 147.312018,227.345 146.477729,227.615328 C145.64344,227.885657 144.932674,228.258517 144.34541,228.733922 L144.331427,231.152881 L143.576376,231.152881 L143.590359,228.272502 C144.308127,227.741167 145.154055,227.305386 146.128168,226.965146 C147.102282,226.624905 148.115997,226.454787 149.169345,226.454787 C150.791314,226.454787 152.091666,226.864934 153.070441,227.68524 C154.049215,228.505547 154.538595,229.68938 154.538595,231.236776 L154.538595,238.815248 C154.538595,239.206758 154.554908,239.593601 154.587534,239.975789 C154.620159,240.357977 154.673758,240.735499 154.748331,241.108365 L156.566046,241.108365 L156.566046,241.863416 L154.091158,241.863416 Z M147.687208,241.415979 C149.113423,241.415979 150.353185,241.094386 151.406533,240.451192 C152.45988,239.807997 153.25221,238.917792 153.783544,237.780549 L153.783544,234.187067 L150.06422,234.187067 C148.20921,234.187067 146.722427,234.548276 145.603828,235.270704 C144.485228,235.993133 143.925937,236.932276 143.925937,238.088162 C143.925937,239.02965 144.270833,239.819649 144.960636,240.458183 C145.650439,241.096717 146.559287,241.415979 147.687208,241.415979 L147.687208,241.415979 Z" id="ninja" fill="#FFFFFF"></path>
            </g>
        </g>
    </g>
</svg>